<svg xmlns="http://www.w3.org/2000/svg" xmlns:xlink="http://www.w3.org/1999/xlink" width="228" zoomAndPan="magnify" viewBox="0 0 171 175.5" height="234" preserveAspectRatio="xMidYMid meet" version="1.0"><defs><g/><clipPath id="d5a24e3a16"><path d="M 0.242188 19 L 161 19 L 161 174.253906 L 0.242188 174.253906 Z M 0.242188 19 " clip-rule="nonzero"/></clipPath><clipPath id="519cfa3416"><path d="M 158 8 L 170.757812 8 L 170.757812 19 L 158 19 Z M 158 8 " clip-rule="nonzero"/></clipPath></defs><path fill="#032d68" d="M 66.167969 27.734375 C 66.167969 27.734375 24.523438 38.453125 21.152344 47.664062 C 17.777344 56.871094 18.335938 71.445312 17.035156 75.285156 C 15.734375 79.125 29.882812 79.308594 29.882812 79.308594 L 41.558594 148.078125 C 41.558594 148.078125 41.265625 171.136719 47.105469 171.136719 C 52.941406 171.136719 59.351562 169.09375 58.1875 157.125 C 57.027344 145.160156 67.273438 119.476562 76.742188 122.976562 C 86.214844 126.480469 89.714844 144.574219 89.714844 144.574219 C 89.714844 144.574219 91.972656 172.886719 96.972656 171.136719 C 101.972656 169.382812 110.988281 165.953125 111.878906 160.226562 C 112.773438 154.5 125.617188 103.421875 125.617188 103.421875 L 131.054688 50.351562 C 131.054688 50.351562 129.648438 39.839844 123.691406 32.960938 C 117.734375 26.078125 91.050781 26.816406 91.050781 26.816406 C 91.050781 26.816406 83.1875 18.882812 66.167969 27.734375 Z M 66.167969 27.734375 " fill-opacity="1" fill-rule="nonzero"/><path fill="#fefdfd" d="M 53.527344 54.882812 C 53.527344 54.882812 53.222656 69.515625 58.1875 72.605469 C 63.15625 75.695312 59.992188 81 59.992188 81 C 59.992188 81 67.328125 106.050781 80.273438 98.460938 C 93.21875 90.871094 89.714844 74.617188 89.714844 74.617188 C 89.714844 74.617188 97.886719 68.691406 99.640625 67.816406 C 101.390625 66.941406 95.488281 54.882812 95.488281 54.882812 L 84.460938 53.890625 L 67.640625 58.835938 Z M 53.527344 54.882812 " fill-opacity="1" fill-rule="nonzero"/><g clip-path="url(#d5a24e3a16)"><path fill="#032d68" d="M 131.050781 50.351562 C 131.425781 51.578125 131.492188 52.859375 131.742188 54.109375 C 131.878906 54.792969 132.082031 55.476562 132.183594 56.148438 C 132.402344 57.601562 132.921875 59 132.914062 60.496094 C 132.910156 61.457031 133.078125 62.417969 133.121094 63.386719 C 133.28125 66.847656 133.132812 70.296875 132.820312 73.738281 C 132.753906 74.445312 132.816406 75.125 132.949219 75.875 C 133.152344 75.753906 133.339844 75.679688 133.476562 75.554688 C 135.167969 74.007812 136.902344 72.515625 138.527344 70.890625 C 139.675781 69.734375 140.460938 68.242188 141.851562 67.320312 C 141.949219 67.257812 142.042969 67.164062 142.085938 67.0625 C 142.710938 65.652344 143.941406 64.675781 144.726562 63.378906 C 145.101562 62.757812 145.632812 62.238281 146.0625 61.644531 C 147.246094 60.003906 147.972656 58.171875 148.582031 56.289062 C 149.304688 54.039062 149.800781 51.738281 150.046875 49.371094 C 150.199219 47.871094 150.441406 46.371094 150.570312 44.867188 C 150.761719 42.625 151.269531 40.414062 151.191406 38.148438 C 151.1875 38.070312 151.199219 37.992188 151.214844 37.914062 C 151.304688 37.464844 151.664062 36.996094 151.410156 36.566406 C 151.148438 36.117188 150.546875 36.089844 150.089844 35.929688 C 149.117188 35.59375 148.492188 35.007812 148.273438 33.992188 C 148.160156 33.457031 147.835938 33.003906 147.652344 32.488281 C 147.148438 31.082031 147.53125 29.6875 147.71875 28.332031 C 147.875 27.195312 147.933594 26.078125 147.820312 24.964844 C 147.664062 23.4375 148.042969 22.125 148.980469 20.933594 C 149.460938 20.320312 149.984375 19.855469 150.84375 19.96875 C 151.105469 20.003906 151.382812 19.917969 151.65625 19.886719 C 152.203125 19.824219 152.636719 20.023438 153.007812 20.421875 C 153.75 21.226562 154.195312 22.140625 154.167969 23.261719 C 154.152344 23.839844 153.992188 24.546875 154.339844 24.964844 C 154.714844 25.417969 155.429688 25.042969 155.992188 25.09375 C 156.417969 25.132812 156.851562 25.085938 157.277344 25.117188 C 159.070312 25.253906 159.765625 25.933594 160.011719 27.433594 C 160.128906 28.160156 160.226562 28.910156 160.191406 29.640625 C 160.140625 30.824219 160.308594 31.988281 159.917969 33.199219 C 159.46875 34.574219 158.574219 35.328125 157.332031 35.597656 C 156.320312 35.820312 155.328125 36.1875 154.292969 36.191406 C 153.675781 38.554688 153.792969 40.933594 153.539062 43.273438 C 153.316406 45.320312 153.015625 47.363281 152.816406 49.410156 C 152.664062 50.960938 152.296875 52.46875 152.074219 54 C 151.753906 56.222656 150.914062 58.269531 150.042969 60.277344 C 149.292969 62 148.402344 63.683594 147.058594 65.085938 C 146.339844 65.832031 145.789062 66.742188 145.167969 67.585938 C 143.226562 70.214844 140.945312 72.53125 138.546875 74.742188 C 136.777344 76.378906 134.96875 77.957031 132.90625 79.210938 C 132.335938 79.558594 132.226562 80.101562 132.257812 80.613281 C 132.335938 81.761719 132.050781 82.839844 131.867188 83.953125 C 131.667969 85.132812 131.859375 86.386719 131.625 87.554688 C 131.308594 89.113281 131.148438 90.691406 130.90625 92.253906 C 130.703125 93.539062 130.167969 94.746094 130.21875 96.117188 C 130.257812 97.070312 129.910156 98.089844 129.726562 99.078125 C 129.335938 101.175781 128.789062 103.238281 128.402344 105.339844 C 128.179688 106.554688 127.996094 107.792969 127.578125 108.972656 C 126.882812 110.917969 126.675781 112.984375 126.175781 114.976562 C 126.074219 115.394531 126.007812 115.816406 125.8125 116.199219 C 125.308594 117.183594 124.953125 118.195312 124.957031 119.324219 C 124.960938 119.621094 124.839844 119.9375 124.71875 120.21875 C 124.421875 120.902344 124.230469 121.609375 124.128906 122.351562 C 124.042969 122.96875 123.9375 123.585938 123.5625 124.113281 C 123.371094 124.378906 123.359375 124.6875 123.324219 125 C 123.21875 126.007812 123.089844 127.011719 122.96875 128.015625 C 122.921875 128.371094 122.800781 128.710938 122.574219 128.976562 C 122.042969 129.609375 121.878906 130.390625 121.792969 131.148438 C 121.667969 132.277344 121.394531 133.355469 121.066406 134.4375 C 120.898438 134.988281 120.890625 135.589844 120.796875 136.167969 C 120.414062 138.460938 119.703125 140.679688 119.285156 142.96875 C 119.121094 143.871094 118.660156 144.710938 118.441406 145.628906 C 117.746094 148.570312 116.875 151.460938 115.851562 154.316406 C 115.382812 155.628906 114.980469 156.949219 114.265625 158.152344 C 114.226562 158.21875 114.195312 158.292969 114.175781 158.367188 C 113.40625 161.441406 111.992188 164.246094 110.449219 166.976562 C 109.8125 168.101562 109.015625 169.203125 107.820312 169.875 C 107.546875 170.03125 107.3125 170.238281 107.128906 170.496094 C 107.039062 170.625 106.964844 170.796875 106.839844 170.859375 C 105.707031 171.421875 104.855469 172.398438 103.613281 172.832031 C 102.328125 173.277344 101.039062 173.714844 99.742188 174.128906 C 99.253906 174.285156 98.769531 174.351562 98.25 174.308594 C 96.578125 174.167969 94.917969 173.964844 93.460938 173.035156 C 92.238281 172.261719 91.167969 171.285156 90.179688 170.242188 C 89.464844 169.484375 88.839844 168.617188 88.285156 167.730469 C 87.375 166.273438 86.824219 164.652344 86.386719 162.996094 C 86.207031 162.320312 85.960938 161.628906 85.949219 160.945312 C 85.9375 159.800781 85.777344 158.632812 85.863281 157.527344 C 85.964844 156.175781 85.996094 154.8125 86.117188 153.457031 C 86.21875 152.34375 86.105469 151.207031 86.066406 150.082031 C 85.996094 148.175781 85.785156 146.277344 85.949219 144.367188 C 85.96875 144.140625 85.910156 143.898438 85.855469 143.675781 C 85.460938 141.964844 85.398438 140.210938 85.242188 138.480469 C 85.039062 136.234375 84.011719 134.359375 82.730469 132.6875 C 81.152344 130.628906 78.847656 129.691406 76.242188 129.453125 C 74.929688 129.332031 73.664062 129.515625 72.445312 129.882812 C 71.691406 130.105469 70.984375 130.566406 70.414062 131.171875 C 68.800781 132.878906 67.519531 134.78125 66.566406 136.949219 C 65.792969 138.707031 65.269531 140.496094 65.152344 142.40625 C 65.101562 143.265625 64.703125 144.03125 64.574219 144.882812 C 64.371094 146.222656 64.214844 147.578125 63.894531 148.898438 C 63.78125 149.363281 63.800781 149.824219 63.746094 150.285156 C 63.585938 151.664062 63.546875 153.035156 63.109375 154.402344 C 62.75 155.511719 63.035156 156.808594 62.808594 157.980469 C 62.46875 159.761719 62.488281 161.617188 61.746094 163.324219 C 61.53125 163.820312 61.375 164.355469 61.261719 164.886719 C 61.105469 165.625 61.214844 166.460938 60.273438 166.832031 C 60.09375 166.902344 60.039062 167.300781 59.941406 167.554688 C 59.628906 168.355469 59.25 169.121094 58.769531 169.835938 C 58.597656 170.09375 58.433594 170.390625 58.1875 170.558594 C 56.972656 171.390625 55.824219 172.328125 54.480469 172.96875 C 52.371094 173.976562 50.148438 173.945312 47.898438 173.714844 C 47.433594 173.664062 46.96875 173.59375 46.503906 173.585938 C 45.859375 173.574219 45.265625 173.4375 44.746094 173.050781 C 43.832031 172.378906 42.695312 172.167969 41.761719 171.480469 C 40.105469 170.265625 38.886719 168.667969 38.085938 166.886719 C 37.421875 165.402344 36.636719 163.910156 36.449219 162.207031 C 36.332031 161.171875 35.667969 160.269531 35.195312 159.328125 C 34.988281 158.910156 34.777344 158.503906 34.648438 158.046875 C 34.257812 156.667969 33.683594 155.339844 33.453125 153.917969 C 33.277344 152.820312 32.710938 151.863281 32.265625 150.894531 C 31.671875 149.613281 31.425781 148.234375 30.902344 146.9375 C 30.542969 146.050781 30.417969 145.003906 30.179688 144.03125 C 29.738281 142.21875 29.273438 140.421875 28.636719 138.664062 C 28.453125 138.152344 28.339844 137.617188 28.316406 137.066406 C 28.304688 136.832031 28.316406 136.589844 28.25 136.371094 C 27.628906 134.339844 27.421875 132.1875 26.683594 130.214844 C 26.058594 128.558594 26.054688 126.761719 25.277344 125.171875 C 25.175781 124.964844 25.089844 124.75 24.976562 124.496094 C 24.152344 124.835938 23.378906 125.265625 22.820312 125.878906 C 22.007812 126.773438 20.980469 127.042969 19.90625 127.136719 C 18.257812 127.28125 16.742188 126.890625 15.535156 125.644531 C 15.128906 125.226562 14.640625 124.886719 14.253906 124.453125 C 12.964844 123.003906 13.121094 120.457031 14.355469 118.949219 C 15.175781 117.949219 16.019531 117.019531 17.210938 116.425781 C 17.753906 116.15625 18.203125 115.699219 18.832031 115.222656 C 17.976562 114.9375 17.273438 114.597656 16.535156 114.484375 C 15.535156 114.328125 14.605469 113.878906 13.582031 113.859375 C 12.972656 113.847656 12.53125 113.386719 11.96875 113.210938 C 9.671875 112.492188 7.652344 111.222656 5.851562 109.675781 C 4.296875 108.339844 2.988281 106.761719 2.164062 104.800781 C 1.183594 102.480469 0.679688 100.089844 0.429688 97.59375 C 0.261719 95.9375 0.347656 94.304688 0.71875 92.746094 C 1.183594 90.808594 1.6875 88.847656 2.542969 87.015625 C 2.828125 86.40625 3.21875 85.882812 3.652344 85.378906 C 3.929688 85.054688 4.230469 84.738281 4.449219 84.378906 C 5.3125 82.957031 6.535156 81.898438 7.8125 80.871094 C 8.8125 80.0625 9.761719 79.175781 10.902344 78.585938 C 12.6875 77.664062 14.242188 76.308594 16.199219 75.695312 C 16.492188 75.605469 16.757812 75.425781 17.035156 75.285156 C 17.515625 75.042969 17.90625 74.777344 17.652344 74.117188 C 17.527344 73.789062 17.609375 73.421875 17.730469 73.085938 C 17.882812 72.667969 17.921875 72.230469 17.847656 71.8125 C 17.59375 70.402344 18.027344 69.027344 18.085938 67.636719 C 18.160156 65.941406 18.511719 64.261719 18.742188 62.578125 C 19.484375 61.628906 20.535156 61.164062 21.589844 60.675781 C 23.53125 59.777344 25.480469 58.910156 27.402344 57.964844 C 29.375 56.996094 31.511719 56.375 33.554688 55.546875 C 35.324219 54.828125 37.171875 54.328125 38.917969 53.585938 C 41.902344 52.324219 44.992188 51.4375 48.132812 50.707031 C 48.886719 50.53125 49.585938 50.203125 50.371094 50.082031 C 52.097656 49.816406 53.828125 49.492188 55.5 49.003906 C 58.417969 48.160156 61.378906 47.554688 64.355469 47.015625 C 65.265625 47.417969 65.753906 48.21875 66.253906 49.007812 C 66.441406 49.304688 66.550781 49.65625 66.855469 49.859375 C 68.105469 50.699219 69.054688 51.9375 70.460938 52.578125 C 71.65625 53.121094 72.785156 53.898438 74.03125 54.210938 C 75.484375 54.578125 77 54.769531 78.515625 54.863281 C 80.578125 54.988281 82.527344 54.515625 84.460938 53.890625 C 86.84375 53.121094 88.910156 51.796875 90.578125 49.964844 C 92.058594 48.335938 93.441406 46.589844 94.285156 44.503906 C 94.34375 44.363281 94.472656 44.253906 94.566406 44.132812 C 95.539062 44.101562 96.496094 44.113281 97.464844 44.289062 C 98.640625 44.507812 99.84375 44.574219 101.03125 44.746094 C 102.753906 44.988281 104.523438 44.925781 106.183594 45.566406 C 106.363281 45.632812 106.5625 45.652344 106.753906 45.667969 C 108.253906 45.8125 109.75 45.777344 111.253906 46.121094 C 112.703125 46.457031 114.234375 46.539062 115.695312 46.867188 C 117.621094 47.300781 119.558594 47.695312 121.492188 48.046875 C 122.90625 48.304688 124.25 48.789062 125.65625 49.058594 C 127.15625 49.351562 128.753906 49.402344 130.140625 50.210938 C 130.410156 50.371094 130.738281 50.371094 131.050781 50.351562 Z M 67.640625 92.039062 C 67.648438 92.226562 67.777344 92.277344 67.929688 92.304688 C 69.25 93.605469 70.984375 94.0625 72.667969 94.636719 C 74.101562 95.121094 75.546875 95.066406 77.027344 94.925781 C 78.351562 94.796875 79.476562 94.265625 80.574219 93.613281 C 82.582031 92.421875 84.183594 90.832031 85.246094 88.730469 C 85.824219 88.125 86.117188 87.339844 86.339844 86.585938 C 87.261719 83.492188 87.578125 80.363281 86.792969 77.164062 C 86.386719 75.515625 85.199219 74.96875 83.785156 75.910156 C 83.167969 76.316406 82.585938 76.765625 81.976562 77.175781 C 81.125 77.746094 80.265625 78.273438 79.253906 78.636719 C 77.128906 79.40625 75.015625 79.53125 72.835938 79.203125 C 71.648438 79.023438 70.464844 78.726562 69.394531 78.199219 C 68.417969 77.71875 67.441406 77.257812 66.429688 76.871094 C 65.449219 76.496094 64.886719 76.75 64.53125 77.730469 C 64.402344 78.09375 64.335938 78.488281 64.3125 78.871094 C 64.238281 80.152344 64.277344 81.445312 64.128906 82.714844 C 63.882812 84.824219 64.292969 86.816406 65.003906 88.773438 C 65.511719 90.164062 66.492188 91.191406 67.652344 92.066406 Z M 17.941406 78.332031 C 16.132812 78.617188 14.863281 79.703125 13.476562 80.53125 C 12.621094 81.039062 11.644531 81.363281 10.9375 82.125 C 10.597656 82.492188 10.222656 82.855469 9.796875 83.117188 C 7.757812 84.367188 6.648438 86.390625 5.378906 88.292969 C 4.617188 89.4375 4.480469 90.757812 4.136719 92.03125 C 3.460938 94.507812 3.246094 96.988281 3.769531 99.507812 C 3.96875 100.457031 4.167969 101.417969 4.496094 102.328125 C 5.257812 104.441406 6.46875 106.238281 8.347656 107.566406 C 9.046875 108.058594 9.824219 108.445312 10.46875 108.96875 C 11.4375 109.761719 12.566406 110.105469 13.683594 110.542969 C 15.316406 111.183594 17.097656 111.253906 18.730469 111.894531 C 19.523438 112.207031 20.359375 112.417969 21.167969 112.695312 C 21.574219 112.835938 21.96875 112.9375 22.421875 112.789062 C 22.210938 112.054688 22.253906 111.355469 22.210938 110.664062 C 22.1875 110.355469 22.203125 110.054688 22.09375 109.746094 C 21.46875 108.011719 21.605469 106.132812 21.097656 104.371094 C 21.066406 104.261719 21.085938 104.136719 21.097656 104.019531 C 21.207031 102.84375 20.828125 101.714844 20.757812 100.554688 C 20.667969 99.085938 20.296875 97.644531 20.167969 96.171875 C 20.101562 95.398438 20.222656 94.601562 20.0625 93.867188 C 19.832031 92.796875 19.726562 91.71875 19.527344 90.65625 C 19.074219 88.246094 18.945312 85.808594 18.625 83.386719 C 18.515625 82.546875 18.359375 81.707031 18.242188 80.871094 C 18.132812 80.042969 18.183594 79.175781 17.941406 78.332031 Z M 122.226562 107.75 C 122.191406 107.117188 122.1875 106.5 121.875 105.921875 C 121.65625 105.523438 121.394531 105.1875 120.910156 105.179688 C 120.371094 105.171875 120.074219 105.53125 119.886719 105.996094 C 119.324219 107.402344 118.929688 108.875 118.535156 110.320312 C 117.980469 112.371094 117.648438 114.492188 117.046875 116.542969 C 116.671875 117.800781 116.257812 119.039062 115.960938 120.332031 C 115.574219 122.011719 115.226562 123.757812 114.425781 125.332031 C 114.28125 125.617188 114.152344 125.9375 114.253906 126.230469 C 114.46875 126.851562 114.257812 127.367188 113.972656 127.890625 C 113.800781 128.203125 113.710938 128.542969 113.734375 128.902344 C 113.765625 129.417969 113.625 129.898438 113.488281 130.390625 C 113.136719 131.65625 113.046875 132.988281 112.585938 134.230469 C 112.027344 135.730469 111.972656 137.339844 111.527344 138.867188 C 111.058594 140.46875 110.632812 142.089844 110.136719 143.683594 C 109.882812 144.503906 109.933594 145.359375 109.703125 146.199219 C 109.441406 147.160156 109.0625 148.109375 108.890625 149.082031 C 108.539062 151.089844 107.453125 152.855469 107.105469 154.855469 C 107.082031 154.996094 106.9375 155.117188 106.867188 155.253906 C 106.300781 156.359375 105.652344 157.433594 105.191406 158.585938 C 104.398438 160.582031 103.296875 162.390625 102.105469 164.15625 C 102 164.320312 101.875 164.472656 101.789062 164.644531 C 101.296875 165.613281 101.542969 166.761719 102.335938 167.246094 C 103.214844 167.777344 104.007812 167.589844 104.777344 166.644531 C 104.972656 166.402344 105.128906 166.128906 105.300781 165.867188 C 105.574219 165.445312 105.789062 164.960938 106.128906 164.601562 C 107.3125 163.359375 107.792969 161.71875 108.558594 160.257812 C 109.109375 159.203125 109.65625 158.125 110.121094 157.019531 C 110.648438 155.769531 111.289062 154.550781 111.585938 153.222656 C 111.757812 152.457031 111.984375 151.71875 112.238281 150.984375 C 113.058594 148.644531 113.96875 146.324219 114.003906 143.789062 C 114.007812 143.527344 114.089844 143.234375 114.226562 143.015625 C 114.871094 142 115.007812 140.8125 115.308594 139.703125 C 115.824219 137.800781 116.117188 135.847656 116.679688 133.9375 C 117.234375 132.058594 117.636719 130.09375 117.921875 128.144531 C 118.214844 126.148438 118.828125 124.238281 119.269531 122.285156 C 119.609375 120.785156 119.855469 119.226562 120.554688 117.816406 C 120.65625 117.609375 120.710938 117.367188 120.726562 117.140625 C 120.875 115.089844 121.839844 113.171875 121.730469 111.082031 C 121.726562 111.007812 121.777344 110.933594 121.789062 110.855469 C 121.933594 109.820312 122.082031 108.785156 122.226562 107.75 Z M 85.011719 66.246094 C 85.972656 65.375 86.785156 64.683594 87.550781 63.941406 C 88.550781 62.972656 89.582031 62.027344 90.171875 60.726562 C 90.476562 60.046875 90.375 59.53125 89.898438 59.152344 C 89.441406 58.785156 88.726562 58.6875 88.277344 59.136719 C 87.679688 59.738281 86.925781 60.183594 86.410156 60.847656 C 85.464844 62.058594 84.355469 63.046875 83.058594 63.867188 C 82.203125 64.410156 81.472656 65.121094 80.96875 66.019531 C 80.519531 66.820312 80.683594 67.628906 81.457031 68.039062 C 83.007812 68.863281 84.699219 69.292969 86.417969 69.5625 C 87.03125 69.660156 87.640625 69.742188 88.25 69.867188 C 89.191406 70.0625 90.144531 70.234375 91.101562 70.3125 C 91.921875 70.382812 92.660156 69.722656 92.765625 68.976562 C 92.886719 68.148438 92.460938 67.625 91.4375 67.402344 C 90.71875 67.242188 89.996094 67.113281 89.273438 66.984375 C 87.921875 66.742188 86.566406 66.515625 85.011719 66.246094 Z M 60.097656 70.265625 C 60.992188 70.253906 61.785156 70.097656 62.460938 69.578125 C 64.242188 68.210938 64.523438 65.476562 63.765625 63.878906 C 63.144531 62.5625 60.71875 61.445312 59.328125 61.863281 C 59.21875 61.894531 59.113281 61.945312 59.011719 62 C 58.601562 62.222656 58.167969 62.410156 57.800781 62.691406 C 57.089844 63.230469 56.394531 63.90625 56.117188 64.699219 C 55.6875 65.953125 55.664062 67.300781 56.542969 68.476562 C 57.003906 69.09375 57.371094 69.84375 58.195312 70.035156 C 58.835938 70.183594 59.503906 70.199219 60.097656 70.265625 Z M 97.105469 79.300781 C 98.523438 79.355469 99.875 79.164062 101.039062 78.230469 C 101.527344 77.839844 101.839844 77.386719 101.820312 76.746094 C 101.765625 75.222656 100.980469 73.992188 99.765625 73.289062 C 98.449219 72.527344 96.890625 72.34375 95.390625 73.035156 C 95.03125 73.199219 94.671875 73.292969 94.285156 73.371094 C 93.195312 73.589844 92.503906 74.292969 92.222656 75.355469 C 91.960938 76.34375 92.238281 77.152344 93.027344 77.859375 C 94.203125 78.90625 95.570312 79.300781 97.105469 79.300781 Z M 56.863281 162.394531 C 56.871094 161.285156 56.226562 160.46875 55.328125 160.269531 C 54.503906 160.085938 53.84375 160.476562 53.453125 161.441406 C 53.15625 162.164062 52.625 162.738281 52.261719 163.417969 C 52.066406 163.785156 51.703125 164.097656 51.273438 164.191406 C 50.179688 164.429688 49.066406 164.773438 47.949219 164.535156 C 47.261719 164.386719 46.566406 164.386719 45.886719 164.226562 C 45.179688 164.0625 44.589844 164.402344 44.261719 165.042969 C 43.976562 165.605469 44.0625 166.070312 44.554688 166.632812 C 44.792969 166.898438 45.089844 167.078125 45.394531 167.25 C 47.128906 168.226562 48.960938 168.402344 50.898438 168.03125 C 51.992188 167.820312 53 167.460938 53.84375 166.746094 C 54.496094 166.195312 55.152344 165.621094 55.675781 164.957031 C 56.296875 164.164062 56.605469 163.191406 56.863281 162.394531 Z M 52.429688 80.941406 C 52.820312 80.941406 53.21875 81.003906 53.597656 80.933594 C 55.378906 80.59375 57.109375 80.132812 57.960938 78.269531 C 58.394531 77.324219 58.210938 76.53125 57.414062 75.871094 C 57.085938 75.597656 56.695312 75.398438 56.375 75.117188 C 55.902344 74.699219 55.382812 74.589844 54.757812 74.621094 C 53.894531 74.664062 53.082031 74.949219 52.242188 75.046875 C 51.140625 75.175781 50.300781 75.714844 49.679688 76.511719 C 48.507812 78.015625 48.402344 79.910156 50.707031 80.847656 C 51.292969 81.085938 51.851562 80.988281 52.429688 80.941406 Z M 52.429688 80.941406 " fill-opacity="1" fill-rule="nonzero"/></g><path fill="#065ad0" d="M 94.566406 44.132812 C 94.472656 44.253906 94.34375 44.363281 94.285156 44.503906 C 93.441406 46.589844 92.058594 48.335938 90.578125 49.964844 C 88.910156 51.796875 86.84375 53.121094 84.460938 53.890625 C 82.527344 54.515625 80.578125 54.988281 78.515625 54.863281 C 77 54.769531 75.484375 54.578125 74.03125 54.210938 C 72.785156 53.898438 71.65625 53.121094 70.460938 52.578125 C 69.054688 51.9375 68.105469 50.699219 66.855469 49.859375 C 66.550781 49.65625 66.441406 49.304688 66.253906 49.007812 C 65.753906 48.21875 65.265625 47.417969 64.355469 47.015625 C 64.464844 46.621094 64.417969 46.242188 64.214844 45.894531 C 63.578125 44.8125 63.257812 43.617188 62.941406 42.425781 C 62.703125 41.535156 62.441406 40.625 62.398438 39.714844 C 62.339844 38.414062 62.46875 37.101562 62.515625 35.796875 C 62.464844 34.980469 62.972656 34.332031 63.167969 33.589844 C 63.566406 32.085938 64.175781 30.671875 65.050781 29.375 C 65.28125 29.035156 65.621094 28.71875 65.542969 28.234375 C 65.820312 28.15625 66.003906 27.957031 66.167969 27.734375 C 67.183594 26.363281 68.582031 25.410156 69.992188 24.558594 C 71.402344 23.707031 72.96875 23.066406 74.621094 22.78125 C 75.199219 22.679688 75.746094 22.566406 76.289062 22.332031 C 77.953125 21.613281 79.6875 21.648438 81.421875 22.027344 C 82.328125 22.226562 83.230469 22.46875 84.128906 22.71875 C 85.75 23.167969 87.199219 23.910156 88.542969 24.957031 C 89.359375 25.59375 90.085938 26.375 91.050781 26.816406 C 91.035156 27.09375 91.101562 27.34375 91.28125 27.574219 C 92.503906 29.132812 93.628906 30.75 94.339844 32.617188 C 94.425781 32.839844 94.59375 33.007812 94.789062 33.140625 C 94.703125 33.699219 94.933594 34.207031 95.054688 34.734375 C 95.429688 36.402344 95.632812 38.066406 95.367188 39.796875 C 95.144531 41.253906 94.734375 42.667969 94.566406 44.132812 Z M 73.457031 39.378906 C 73.261719 40.027344 73.527344 40.550781 73.769531 41.085938 C 74.199219 42.019531 74.910156 42.742188 75.824219 43.070312 C 76.824219 43.429688 77.851562 43.875 78.949219 43.816406 C 79.441406 43.789062 79.917969 43.535156 80.402344 43.398438 C 81.972656 42.945312 83.023438 41.929688 83.566406 40.402344 C 84.046875 39.050781 84.046875 37.640625 83.710938 36.28125 C 83.1875 34.183594 81.898438 32.753906 79.441406 32.667969 C 77.757812 32.609375 76.277344 33.324219 75.023438 34.460938 C 74.4375 34.988281 74.027344 35.597656 73.765625 36.375 C 73.457031 37.269531 73.070312 38.105469 73.453125 39.0625 C 73.492188 39.164062 73.457031 39.296875 73.457031 39.378906 Z M 73.457031 39.378906 " fill-opacity="1" fill-rule="nonzero"/><path fill="#fefdfd" d="M 62.515625 35.796875 C 62.46875 37.101562 62.339844 38.414062 62.398438 39.714844 C 62.441406 40.625 62.703125 41.535156 62.941406 42.425781 C 63.257812 43.617188 63.578125 44.8125 64.214844 45.894531 C 64.417969 46.242188 64.464844 46.621094 64.355469 47.015625 C 61.378906 47.554688 58.417969 48.160156 55.5 49.003906 C 53.828125 49.492188 52.097656 49.816406 50.371094 50.082031 C 49.585938 50.203125 48.886719 50.53125 48.132812 50.707031 C 44.992188 51.4375 41.902344 52.324219 38.917969 53.585938 C 37.171875 54.328125 35.324219 54.828125 33.554688 55.546875 C 31.511719 56.375 29.375 56.996094 27.402344 57.964844 C 25.480469 58.910156 23.53125 59.777344 21.589844 60.675781 C 20.535156 61.164062 19.484375 61.628906 18.742188 62.578125 C 17.664062 62.4375 16.921875 61.511719 17.191406 60.347656 C 17.75 57.972656 17.789062 55.503906 18.535156 53.167969 C 19.160156 51.214844 19.882812 49.308594 21.152344 47.664062 C 21.816406 47.609375 22.433594 47.421875 23.03125 47.101562 C 24.847656 46.132812 26.796875 45.464844 28.699219 44.683594 C 30.859375 43.800781 33.105469 43.175781 35.292969 42.378906 C 36.417969 41.972656 37.582031 41.644531 38.777344 41.445312 C 39.808594 41.273438 40.828125 41.007812 41.839844 40.738281 C 44.414062 40.042969 46.976562 39.292969 49.558594 38.625 C 52.226562 37.9375 54.886719 37.21875 57.601562 36.714844 C 59.238281 36.410156 60.875 36.101562 62.515625 35.796875 Z M 62.515625 35.796875 " fill-opacity="1" fill-rule="nonzero"/><path fill="#032d68" d="M 62.515625 35.796875 C 60.875 36.101562 59.238281 36.410156 57.601562 36.714844 C 54.886719 37.21875 52.226562 37.9375 49.558594 38.625 C 46.976562 39.292969 44.414062 40.042969 41.839844 40.738281 C 40.828125 41.007812 39.808594 41.273438 38.777344 41.445312 C 37.582031 41.644531 36.417969 41.972656 35.292969 42.378906 C 33.105469 43.175781 30.859375 43.800781 28.699219 44.683594 C 26.796875 45.464844 24.847656 46.132812 23.03125 47.101562 C 22.433594 47.421875 21.816406 47.609375 21.152344 47.664062 C 21.386719 46.601562 21.847656 45.617188 22.1875 44.605469 C 22.816406 42.730469 24.226562 41.292969 24.746094 39.394531 C 24.949219 38.652344 25.691406 38.28125 26.167969 37.722656 C 26.621094 37.195312 27.078125 36.679688 27.5 36.117188 C 28.445312 34.839844 29.40625 33.496094 30.6875 32.582031 C 32.1875 31.507812 33.488281 30.117188 35.300781 29.480469 C 36.367188 29.109375 37.21875 28.320312 38.1875 27.753906 C 39.890625 26.757812 41.691406 26.316406 43.601562 26.160156 C 44.460938 26.085938 45.308594 26 46.117188 25.675781 C 47.621094 25.070312 49.253906 25.210938 50.8125 24.886719 C 51.511719 24.738281 52.167969 25.171875 52.847656 25.3125 C 53.949219 25.550781 55.066406 25.703125 56.164062 25.945312 C 56.839844 26.09375 57.578125 26.046875 58.117188 26.601562 C 58.167969 26.652344 58.261719 26.691406 58.332031 26.6875 C 60.03125 26.53125 61.480469 27.386719 63.023438 27.859375 C 63.367188 27.964844 63.707031 28.027344 64.058594 27.988281 C 64.582031 27.925781 65.066406 28.042969 65.542969 28.234375 C 65.621094 28.71875 65.28125 29.035156 65.050781 29.375 C 64.175781 30.671875 63.566406 32.085938 63.167969 33.589844 C 62.972656 34.332031 62.464844 34.980469 62.515625 35.796875 Z M 62.515625 35.796875 " fill-opacity="1" fill-rule="nonzero"/><path fill="#fefdfd" d="M 94.566406 44.132812 C 94.734375 42.667969 95.144531 41.253906 95.367188 39.796875 C 95.632812 38.066406 95.429688 36.402344 95.054688 34.734375 C 94.933594 34.207031 94.703125 33.699219 94.789062 33.140625 C 96.1875 33.15625 97.59375 33.136719 98.953125 32.835938 C 100.652344 32.460938 102.351562 32.859375 104.058594 32.675781 C 105.039062 32.570312 106.136719 32.8125 107.179688 32.945312 C 108.941406 33.167969 110.714844 33.332031 112.433594 33.765625 C 113.726562 34.09375 115.050781 34.09375 116.339844 34.367188 C 118.613281 34.851562 120.722656 35.90625 123.007812 36.367188 C 123.117188 36.390625 123.226562 36.445312 123.328125 36.503906 C 124.410156 37.109375 125.726562 37.171875 126.730469 37.96875 C 126.832031 38.046875 127.03125 38.003906 127.1875 38.015625 C 128.871094 39.25 129.234375 41.167969 129.621094 43.003906 C 129.984375 44.726562 130.429688 46.355469 131.488281 47.800781 C 132.398438 49.046875 132.28125 49.484375 131.054688 50.351562 C 130.738281 50.371094 130.410156 50.371094 130.140625 50.210938 C 128.753906 49.402344 127.15625 49.351562 125.65625 49.058594 C 124.25 48.789062 122.90625 48.304688 121.492188 48.046875 C 119.558594 47.695312 117.621094 47.300781 115.695312 46.867188 C 114.234375 46.539062 112.703125 46.457031 111.253906 46.121094 C 109.75 45.777344 108.253906 45.8125 106.753906 45.667969 C 106.5625 45.652344 106.363281 45.632812 106.183594 45.566406 C 104.523438 44.925781 102.753906 44.988281 101.03125 44.746094 C 99.84375 44.574219 98.640625 44.507812 97.464844 44.289062 C 96.496094 44.113281 95.539062 44.101562 94.566406 44.132812 Z M 94.566406 44.132812 " fill-opacity="1" fill-rule="nonzero"/><path fill="#032d68" d="M 127.1875 38.015625 C 127.03125 38.003906 126.832031 38.050781 126.730469 37.96875 C 125.726562 37.171875 124.410156 37.109375 123.328125 36.503906 C 123.226562 36.445312 123.117188 36.390625 123.007812 36.367188 C 120.722656 35.90625 118.613281 34.851562 116.339844 34.367188 C 115.050781 34.09375 113.726562 34.09375 112.433594 33.765625 C 110.714844 33.332031 108.941406 33.167969 107.179688 32.945312 C 106.136719 32.8125 105.039062 32.570312 104.058594 32.675781 C 102.351562 32.859375 100.652344 32.460938 98.953125 32.835938 C 97.59375 33.136719 96.1875 33.15625 94.789062 33.140625 C 94.59375 33.007812 94.425781 32.839844 94.339844 32.617188 C 93.628906 30.75 92.503906 29.132812 91.28125 27.574219 C 91.101562 27.34375 91.035156 27.09375 91.050781 26.816406 C 93.066406 25.824219 95.265625 25.550781 97.4375 25.144531 C 99.472656 24.765625 101.519531 24.628906 103.574219 24.472656 C 104.199219 24.425781 104.820312 24.390625 105.433594 24.5 C 106.734375 24.734375 108.074219 24.644531 109.363281 24.898438 C 110.734375 25.164062 112.082031 25.546875 113.425781 25.921875 C 115.542969 26.515625 117.324219 27.835938 119.300781 28.726562 C 119.539062 28.835938 119.757812 29.039062 119.917969 29.25 C 120.308594 29.761719 120.808594 30.113281 121.359375 30.414062 C 122.09375 30.816406 122.675781 31.371094 123.066406 32.125 C 123.222656 32.433594 123.4375 32.730469 123.691406 32.960938 C 125.253906 34.375 126.035156 36.320312 127.1875 38.015625 Z M 127.1875 38.015625 " fill-opacity="1" fill-rule="nonzero"/><g clip-path="url(#519cfa3416)"><path fill="#032d68" d="M 158.890625 17.417969 C 158.859375 16.941406 159.097656 16.597656 159.410156 16.285156 C 160.019531 15.679688 160.621094 15.070312 161.230469 14.46875 C 163 12.71875 164.691406 10.886719 166.585938 9.265625 C 167.199219 8.742188 167.847656 8.234375 168.789062 8.488281 C 169.972656 8.808594 170.441406 9.9375 169.726562 10.929688 C 169.550781 11.175781 169.320312 11.417969 169.058594 11.570312 C 167.421875 12.515625 166.175781 13.921875 164.78125 15.15625 C 163.503906 16.285156 162.304688 17.515625 160.878906 18.476562 C 160.425781 18.785156 159.976562 18.9375 159.472656 18.621094 C 159.027344 18.34375 158.914062 17.898438 158.890625 17.417969 Z M 158.890625 17.417969 " fill-opacity="1" fill-rule="nonzero"/></g><path fill="#032d68" d="M 149.570312 5.222656 C 149.640625 7.3125 149.523438 9.335938 149.734375 11.351562 C 149.824219 12.199219 149.730469 13.058594 149.792969 13.914062 C 149.84375 14.664062 149.425781 15.164062 148.808594 15.316406 C 148.082031 15.496094 147.5625 15.246094 147.226562 14.480469 C 146.832031 13.582031 146.660156 12.648438 146.734375 11.644531 C 146.808594 10.609375 146.6875 9.546875 146.546875 8.535156 C 146.402344 7.484375 146.332031 6.476562 146.476562 5.433594 C 146.519531 5.132812 146.46875 4.8125 146.421875 4.507812 C 146.339844 3.996094 146.378906 3.488281 146.519531 3.003906 C 146.722656 2.308594 147.332031 1.90625 148.023438 1.953125 C 148.671875 1.996094 149.183594 2.398438 149.316406 3.097656 C 149.457031 3.820312 149.652344 4.542969 149.570312 5.222656 Z M 149.570312 5.222656 " fill-opacity="1" fill-rule="nonzero"/><path fill="#032d68" d="M 154.257812 11.4375 C 154.222656 11.035156 154.289062 10.617188 154.4375 10.207031 C 155.039062 8.582031 155.304688 6.859375 155.902344 5.21875 C 156.28125 4.1875 156.636719 3.105469 156.910156 2.019531 C 156.996094 1.679688 157.105469 1.34375 157.242188 1.019531 C 157.535156 0.339844 158.0625 0.0117188 158.695312 0.078125 C 159.3125 0.144531 159.800781 0.597656 159.96875 1.277344 C 160.183594 2.160156 159.941406 3.007812 159.566406 3.761719 C 158.777344 5.351562 158.589844 7.113281 157.972656 8.746094 C 157.46875 10.085938 157.039062 11.457031 156.554688 12.804688 C 156.382812 13.285156 155.988281 13.582031 155.484375 13.585938 C 154.929688 13.589844 154.554688 13.265625 154.351562 12.730469 C 154.195312 12.3125 154.1875 11.898438 154.257812 11.4375 Z M 154.257812 11.4375 " fill-opacity="1" fill-rule="nonzero"/><path fill="#065ad0" d="M 122.226562 107.75 C 122.082031 108.785156 121.933594 109.820312 121.789062 110.855469 C 121.777344 110.933594 121.726562 111.007812 121.730469 111.082031 C 121.839844 113.171875 120.875 115.089844 120.726562 117.140625 C 120.710938 117.367188 120.65625 117.609375 120.554688 117.816406 C 119.855469 119.226562 119.609375 120.785156 119.269531 122.285156 C 118.828125 124.238281 118.214844 126.148438 117.921875 128.144531 C 117.636719 130.09375 117.234375 132.058594 116.679688 133.9375 C 116.117188 135.847656 115.824219 137.800781 115.308594 139.703125 C 115.007812 140.8125 114.871094 142 114.226562 143.015625 C 114.089844 143.234375 114.007812 143.527344 114.003906 143.789062 C 113.96875 146.324219 113.058594 148.644531 112.238281 150.984375 C 111.984375 151.71875 111.757812 152.457031 111.585938 153.222656 C 111.289062 154.550781 110.648438 155.769531 110.121094 157.019531 C 109.65625 158.125 109.109375 159.203125 108.558594 160.257812 C 107.792969 161.71875 107.3125 163.359375 106.128906 164.601562 C 105.789062 164.960938 105.574219 165.445312 105.300781 165.867188 C 105.128906 166.128906 104.972656 166.402344 104.777344 166.644531 C 104.007812 167.589844 103.214844 167.777344 102.335938 167.246094 C 101.542969 166.761719 101.296875 165.613281 101.789062 164.644531 C 101.875 164.472656 102 164.320312 102.105469 164.15625 C 103.296875 162.390625 104.398438 160.582031 105.191406 158.585938 C 105.652344 157.433594 106.300781 156.359375 106.867188 155.253906 C 106.9375 155.117188 107.082031 154.996094 107.105469 154.855469 C 107.453125 152.855469 108.539062 151.089844 108.890625 149.082031 C 109.0625 148.109375 109.441406 147.160156 109.703125 146.199219 C 109.933594 145.359375 109.882812 144.503906 110.136719 143.683594 C 110.632812 142.089844 111.058594 140.46875 111.527344 138.867188 C 111.972656 137.339844 112.027344 135.730469 112.585938 134.230469 C 113.046875 132.988281 113.136719 131.65625 113.488281 130.390625 C 113.625 129.898438 113.765625 129.417969 113.734375 128.902344 C 113.710938 128.542969 113.800781 128.203125 113.972656 127.890625 C 114.257812 127.367188 114.46875 126.851562 114.253906 126.230469 C 114.152344 125.9375 114.28125 125.617188 114.425781 125.332031 C 115.226562 123.757812 115.574219 122.011719 115.960938 120.332031 C 116.257812 119.039062 116.671875 117.800781 117.046875 116.542969 C 117.648438 114.492188 117.980469 112.371094 118.535156 110.320312 C 118.929688 108.875 119.324219 107.402344 119.886719 105.996094 C 120.074219 105.53125 120.371094 105.171875 120.910156 105.179688 C 121.394531 105.1875 121.65625 105.523438 121.875 105.921875 C 122.1875 106.5 122.191406 107.117188 122.226562 107.75 Z M 122.226562 107.75 " fill-opacity="1" fill-rule="nonzero"/><path fill="#db383f" d="M 67.652344 92.066406 C 67.703125 90.667969 68.484375 89.664062 69.269531 88.566406 C 70.488281 86.851562 72.300781 86.039062 73.984375 85.058594 C 74.8125 84.574219 75.925781 84.542969 76.929688 84.527344 C 78.597656 84.496094 80.269531 84.535156 81.929688 84.785156 C 82.980469 84.945312 83.953125 85.332031 84.894531 85.804688 C 85.421875 86.066406 85.75 86.496094 85.519531 87.136719 C 85.335938 87.652344 85.515625 88.230469 85.246094 88.730469 C 84.183594 90.832031 82.582031 92.421875 80.574219 93.613281 C 79.476562 94.265625 78.351562 94.796875 77.027344 94.925781 C 75.546875 95.066406 74.101562 95.121094 72.667969 94.636719 C 70.984375 94.0625 69.25 93.605469 67.929688 92.304688 C 67.859375 92.191406 67.828125 92.03125 67.640625 92.039062 Z M 67.652344 92.066406 " fill-opacity="1" fill-rule="nonzero"/><path fill="#db383f" d="M 97.105469 79.300781 C 95.570312 79.300781 94.203125 78.90625 93.027344 77.859375 C 92.238281 77.152344 91.960938 76.34375 92.222656 75.355469 C 92.503906 74.292969 93.195312 73.589844 94.285156 73.371094 C 94.671875 73.292969 95.03125 73.199219 95.390625 73.035156 C 96.890625 72.34375 98.449219 72.527344 99.765625 73.289062 C 100.980469 73.992188 101.765625 75.222656 101.820312 76.746094 C 101.839844 77.386719 101.527344 77.839844 101.039062 78.230469 C 99.875 79.164062 98.523438 79.355469 97.105469 79.300781 Z M 97.105469 79.300781 " fill-opacity="1" fill-rule="nonzero"/><path fill="#065ad0" d="M 56.863281 162.394531 C 56.605469 163.191406 56.296875 164.164062 55.675781 164.957031 C 55.152344 165.621094 54.496094 166.195312 53.84375 166.746094 C 53 167.460938 51.992188 167.820312 50.898438 168.03125 C 48.960938 168.402344 47.128906 168.226562 45.394531 167.25 C 45.089844 167.078125 44.792969 166.898438 44.554688 166.632812 C 44.0625 166.070312 43.976562 165.605469 44.261719 165.042969 C 44.589844 164.402344 45.179688 164.0625 45.886719 164.226562 C 46.566406 164.386719 47.261719 164.386719 47.949219 164.535156 C 49.066406 164.773438 50.179688 164.429688 51.273438 164.191406 C 51.703125 164.097656 52.066406 163.785156 52.261719 163.417969 C 52.625 162.738281 53.15625 162.164062 53.453125 161.441406 C 53.84375 160.476562 54.503906 160.085938 55.328125 160.269531 C 56.226562 160.46875 56.871094 161.285156 56.863281 162.394531 Z M 56.863281 162.394531 " fill-opacity="1" fill-rule="nonzero"/><path fill="#db383f" d="M 52.429688 80.941406 C 51.851562 80.988281 51.292969 81.085938 50.707031 80.847656 C 48.402344 79.910156 48.507812 78.015625 49.679688 76.511719 C 50.300781 75.714844 51.140625 75.175781 52.242188 75.046875 C 53.082031 74.949219 53.894531 74.664062 54.757812 74.621094 C 55.382812 74.589844 55.902344 74.699219 56.375 75.117188 C 56.695312 75.398438 57.085938 75.597656 57.414062 75.871094 C 58.210938 76.53125 58.394531 77.324219 57.960938 78.269531 C 57.109375 80.132812 55.378906 80.59375 53.597656 80.933594 C 53.21875 81.003906 52.820312 80.941406 52.429688 80.941406 Z M 52.429688 80.941406 " fill-opacity="1" fill-rule="nonzero"/><path fill="#fefdfd" d="M 73.457031 39.378906 C 73.457031 39.296875 73.492188 39.164062 73.453125 39.0625 C 73.070312 38.105469 73.457031 37.269531 73.765625 36.375 C 74.027344 35.597656 74.4375 34.988281 75.023438 34.460938 C 76.277344 33.324219 77.757812 32.609375 79.441406 32.667969 C 81.898438 32.753906 83.1875 34.183594 83.710938 36.28125 C 84.046875 37.640625 84.046875 39.050781 83.566406 40.402344 C 83.023438 41.929688 81.972656 42.945312 80.402344 43.398438 C 79.917969 43.535156 79.441406 43.789062 78.949219 43.816406 C 77.851562 43.875 76.824219 43.429688 75.824219 43.070312 C 74.910156 42.742188 74.199219 42.019531 73.769531 41.085938 C 73.527344 40.550781 73.261719 40.027344 73.457031 39.378906 Z M 73.457031 39.378906 " fill-opacity="1" fill-rule="nonzero"/><g fill="#032d68" fill-opacity="1"><g transform="translate(55.79655, 117.919027)"><g><path d="M 3.078125 -6.1875 C 3.566406 -6.1875 3.988281 -6.097656 4.34375 -5.921875 C 4.707031 -5.753906 4.988281 -5.515625 5.1875 -5.203125 C 5.382812 -4.898438 5.484375 -4.554688 5.484375 -4.171875 L 5.484375 -0.171875 C 5.484375 -0.117188 5.46875 -0.078125 5.4375 -0.046875 C 5.40625 -0.015625 5.359375 0 5.296875 0 L 4.515625 0 C 4.453125 0 4.40625 -0.015625 4.375 -0.046875 C 4.34375 -0.078125 4.328125 -0.117188 4.328125 -0.171875 L 4.328125 -0.515625 C 4.328125 -0.535156 4.316406 -0.550781 4.296875 -0.5625 C 4.285156 -0.570312 4.273438 -0.566406 4.265625 -0.546875 C 4.035156 -0.335938 3.765625 -0.175781 3.453125 -0.0625 C 3.148438 0.0390625 2.820312 0.09375 2.46875 0.09375 C 1.882812 0.09375 1.40625 -0.0507812 1.03125 -0.34375 C 0.65625 -0.644531 0.46875 -1.101562 0.46875 -1.71875 C 0.46875 -2.332031 0.679688 -2.816406 1.109375 -3.171875 C 1.546875 -3.523438 2.15625 -3.703125 2.9375 -3.703125 L 4.265625 -3.703125 C 4.304688 -3.703125 4.328125 -3.722656 4.328125 -3.765625 L 4.328125 -4.078125 C 4.328125 -4.429688 4.222656 -4.703125 4.015625 -4.890625 C 3.816406 -5.085938 3.507812 -5.1875 3.09375 -5.1875 C 2.769531 -5.1875 2.503906 -5.125 2.296875 -5 C 2.097656 -4.882812 1.96875 -4.722656 1.90625 -4.515625 C 1.875 -4.410156 1.804688 -4.363281 1.703125 -4.375 L 0.84375 -4.46875 C 0.78125 -4.476562 0.734375 -4.5 0.703125 -4.53125 C 0.671875 -4.5625 0.660156 -4.59375 0.671875 -4.625 C 0.742188 -5.082031 1 -5.457031 1.4375 -5.75 C 1.882812 -6.039062 2.429688 -6.1875 3.078125 -6.1875 Z M 2.75 -0.875 C 3.175781 -0.875 3.546875 -0.984375 3.859375 -1.203125 C 4.171875 -1.429688 4.328125 -1.71875 4.328125 -2.0625 L 4.328125 -2.75 C 4.328125 -2.789062 4.304688 -2.8125 4.265625 -2.8125 L 3.15625 -2.8125 C 2.6875 -2.8125 2.3125 -2.71875 2.03125 -2.53125 C 1.75 -2.351562 1.609375 -2.097656 1.609375 -1.765625 C 1.609375 -1.472656 1.710938 -1.25 1.921875 -1.09375 C 2.140625 -0.945312 2.414062 -0.875 2.75 -0.875 Z M 2.75 -0.875 "/></g></g></g></svg>